<?xml version="1.0" encoding="UTF-8"?>
<svg xmlns="http://www.w3.org/2000/svg" version="1.1" viewBox="0 0 1016 496">
  <defs>
    <style>
      .cls-1 {
        fill: #fff;
      }
    </style>
  </defs>
  <!-- Generator: Adobe Illustrator 28.6.0, SVG Export Plug-In . SVG Version: 1.2.0 Build 709)  -->
  <g>
    <g id="_レイヤー_1" data-name="レイヤー_1">
      <g>
        <path d="M786.78,369.36c67.02,0,121.36-54.33,121.36-121.36s-54.33-121.36-121.36-121.36H229.22c-67.02,0-121.36,54.33-121.36,121.36s54.33,121.36,121.36,121.36h557.57Z"/>
        <g>
          <path class="cls-1" d="M235.41,241.54v-44.32h15.14v44.32h-15.14ZM238.13,241.54v-9.07h37.7v9.07h-37.7Z"/>
          <path class="cls-1" d="M301.79,242.49c-4.14,0-7.83-.39-11.09-1.18-3.26-.78-6.03-1.94-8.32-3.46-2.29-1.52-4.03-3.4-5.22-5.64-1.19-2.24-1.79-4.81-1.79-7.72s.58-5.42,1.74-7.79c1.16-2.37,2.82-4.42,4.98-6.14,2.16-1.72,4.83-3.05,7.99-4,3.16-.94,6.72-1.41,10.67-1.41s7.54.46,10.58,1.38c3.04.92,5.55,2.27,7.52,4.06,1.97,1.79,3.43,3.97,4.37,6.55.94,2.57,1.25,5.52.94,8.83l-38.83.2v-5.64l30.18-.2-5.36,2.62c.44-2.24.25-4.06-.56-5.47-.82-1.41-2.01-2.44-3.57-3.09-1.57-.65-3.26-.97-5.08-.97-2.19,0-4.12.43-5.78,1.28-1.66.85-2.96,2.08-3.9,3.69s-1.41,3.58-1.41,5.91c0,3.67,1.11,6.33,3.34,7.99,2.22,1.66,5.06,2.48,8.51,2.48,1.69,0,3.1-.17,4.23-.5,1.13-.34,2.05-.76,2.77-1.28.72-.51,1.28-1.08,1.69-1.71.41-.63.74-1.23.99-1.81l13.16,2.01c-.5,1.66-1.3,3.16-2.4,4.5-1.1,1.34-2.57,2.51-4.42,3.49-1.85.99-4.07,1.74-6.67,2.25-2.6.51-5.69.77-9.26.77Z"/>
          <path class="cls-1" d="M347.34,242.42c-5.83,0-10.12-1.11-12.88-3.32-2.76-2.22-4.14-5.76-4.14-10.64v-13.9h-7.05l.28-8.39h5.08c2.01-.04,3.53-.27,4.56-.67s1.68-1.16,1.93-2.28l1.22-4.97h8.55v7.86h11.94v8.8h-11.94v13.09c0,1.52.52,2.64,1.55,3.36,1.03.72,2.62,1.07,4.75,1.07,1.19,0,2.32-.09,3.38-.27,1.06-.18,1.94-.42,2.63-.74v10c-2.01.45-3.84.73-5.5.84-1.66.11-3.12.17-4.37.17Z"/>
          <path class="cls-1" d="M359.8,211.13c1.13-2.06,1.93-4,2.4-5.81.47-1.81.75-3.69.85-5.64.09-1.95.14-4.11.14-6.48h13.82c0,3.31-.27,6.11-.8,8.39-.53,2.28-1.24,4.19-2.12,5.71-.88,1.52-1.79,2.8-2.73,3.83h-11.56Z"/>
          <path class="cls-1" d="M402.01,242.49c-3.32,0-6.33-.21-9.02-.64-2.7-.42-5.05-1.04-7.05-1.85-2.01-.81-3.65-1.78-4.94-2.92-1.29-1.14-2.18-2.41-2.68-3.79l11.28-3.56c.44.76,1.21,1.53,2.3,2.32,1.1.78,2.57,1.42,4.42,1.91,1.85.49,4.09.74,6.72.74s4.47-.26,5.88-.77,2.12-1.26,2.12-2.25c0-.71-.39-1.29-1.17-1.71-.78-.42-1.96-.81-3.53-1.14-1.57-.34-3.51-.66-5.83-.97-2.38-.36-4.79-.77-7.24-1.24-2.44-.47-4.73-1.12-6.86-1.95-2.13-.83-3.84-1.92-5.12-3.29-1.29-1.37-1.93-3.1-1.93-5.2s.81-4.11,2.44-5.74c1.63-1.63,4.06-2.92,7.29-3.86,3.23-.94,7.16-1.41,11.8-1.41,4.14,0,7.77.38,10.9,1.14,3.13.76,5.75,1.85,7.85,3.26,2.1,1.41,3.56,3.1,4.37,5.07l-12.13,3.09c-.31-.98-.96-1.83-1.93-2.55-.97-.71-2.19-1.26-3.67-1.64-1.47-.38-3.21-.57-5.22-.57-2.44,0-4.34.27-5.69.81-1.35.54-2.02,1.25-2.02,2.15,0,.72.45,1.31,1.36,1.78.91.47,2.21.86,3.9,1.17,1.69.31,3.7.65,6.02,1.01,2.44.36,4.87.77,7.29,1.24,2.41.47,4.61,1.1,6.58,1.88s3.54,1.81,4.7,3.09c1.16,1.28,1.74,2.92,1.74,4.94,0,2.37-.88,4.42-2.63,6.14-1.76,1.72-4.34,3.04-7.76,3.96-3.42.92-7.6,1.38-12.55,1.38Z"/>
          <path class="cls-1" d="M453.06,241.54v-44.32h26.42c3.45,0,6.58.19,9.4.57,2.82.38,5.31.94,7.47,1.68s4,1.63,5.5,2.69c1.5,1.05,2.63,2.26,3.38,3.63.75,1.37,1.13,2.88,1.13,4.53,0,1.57-.35,2.98-1.03,4.23-.69,1.25-1.74,2.35-3.15,3.29-1.41.94-3.18,1.7-5.31,2.28-2.13.58-4.61,1.01-7.43,1.28v1.01c3.57.27,6.35.84,8.32,1.71s3.49,2.03,4.56,3.46c1.06,1.43,2,3.16,2.82,5.17l3.57,8.8h-16.83l-2.73-8.12c-.56-1.79-1.33-3.18-2.3-4.16-.97-.98-2.21-1.67-3.71-2.05-1.5-.38-3.38-.57-5.64-.57h-9.31v14.91h-15.14ZM468.19,218.65h10.25c3.82,0,6.8-.54,8.93-1.61,2.13-1.07,3.2-2.75,3.2-5.04s-.97-3.89-2.91-4.97c-1.94-1.07-4.89-1.61-8.84-1.61h-10.62v13.23Z"/>
          <path class="cls-1" d="M511.82,241.54v-48.35h15.14v11.08c0,.9-.05,1.83-.14,2.79-.09.96-.25,1.95-.47,2.95-.22,1.01-.44,2.03-.66,3.06-.22,1.03-.49,2.04-.8,3.02h2.26c.88-2.19,1.97-4.11,3.29-5.74,1.32-1.63,3.04-2.91,5.17-3.83,2.13-.92,4.86-1.38,8.18-1.38,5.89,0,10.29,1.47,13.21,4.4,2.91,2.93,4.37,7.44,4.37,13.53v18.47h-15.23v-16.65c0-3.63-.74-6.35-2.21-8.16-1.47-1.81-3.71-2.72-6.72-2.72-2.32,0-4.23.52-5.74,1.54-1.5,1.03-2.63,2.41-3.38,4.13-.75,1.72-1.13,3.64-1.13,5.74v16.12h-15.14Z"/>
          <path class="cls-1" d="M585.24,253.9c-2.51,0-5.08-.16-7.71-.47-2.63-.31-5.12-.77-7.47-1.38-2.35-.6-4.37-1.4-6.06-2.38l3.67-9.6c2.19,1.48,4.84,2.57,7.94,3.29,3.1.71,6.09,1.07,8.98,1.07,3.32,0,6.06-.46,8.23-1.38,2.16-.92,3.82-2.33,4.98-4.23,1.16-1.9,1.83-4.26,2.02-7.08l.47-5.84h-2.26c-.56,2.91-1.55,5.28-2.96,7.12s-3.2,3.19-5.36,4.06c-2.16.87-4.72,1.31-7.66,1.31-3.64,0-6.67-.65-9.12-1.95-2.44-1.3-4.28-3.26-5.5-5.88-1.22-2.62-1.83-5.88-1.83-9.77v-14.71h15.23v12.02c0,4.12.58,7.06,1.74,8.83,1.16,1.77,2.99,2.65,5.5,2.65,1.32,0,2.51-.27,3.57-.81,1.06-.54,1.97-1.3,2.73-2.28.75-.98,1.33-2.18,1.74-3.59.41-1.41.61-2.99.61-4.73v-12.09h15.13v26.05c0,2.82-.36,5.39-1.08,7.72-.72,2.33-1.79,4.36-3.2,6.11-1.41,1.75-3.18,3.21-5.31,4.4-2.13,1.19-4.61,2.07-7.43,2.65-2.82.58-6.02.87-9.59.87Z"/>
          <path class="cls-1" d="M617.55,241.54v-35.45h11.94l.19,10.41h1.88c.88-2.55,2.04-4.67,3.48-6.35,1.44-1.68,3.2-2.93,5.26-3.76,2.07-.83,4.48-1.24,7.24-1.24s5.28.44,7.19,1.31c1.91.87,3.43,2.15,4.56,3.83,1.13,1.68,1.88,3.75,2.26,6.21h1.6c1-2.64,2.32-4.8,3.95-6.48,1.63-1.68,3.57-2.91,5.83-3.69,2.26-.78,4.7-1.18,7.33-1.18,2.82,0,5.28.39,7.38,1.18,2.1.78,3.85,1.95,5.26,3.49s2.46,3.47,3.15,5.77c.69,2.31,1.03,4.98,1.03,8.02v17.93h-15.23v-16.59c0-2.37-.27-4.34-.8-5.91-.53-1.57-1.36-2.74-2.49-3.52-1.13-.78-2.57-1.18-4.32-1.18-2.01,0-3.71.47-5.12,1.41-1.41.94-2.49,2.25-3.24,3.93s-1.13,3.57-1.13,5.67v16.18h-14.85v-16.38c0-2.46-.3-4.48-.89-6.04-.6-1.57-1.47-2.75-2.63-3.56-1.16-.81-2.62-1.21-4.37-1.21-2.01,0-3.7.47-5.08,1.41-1.38.94-2.43,2.25-3.15,3.93-.72,1.68-1.08,3.57-1.08,5.67v16.18h-15.14Z"/>
          <path class="cls-1" d="M709.91,201.12c-2.88,0-5.09-.44-6.63-1.31-1.54-.87-2.3-2.12-2.3-3.73,0-1.7.77-2.99,2.3-3.86,1.54-.87,3.74-1.31,6.63-1.31s5.18.44,6.72,1.31c1.53.87,2.3,2.14,2.3,3.79s-.77,2.92-2.3,3.79c-1.54.87-3.78,1.31-6.72,1.31ZM702.3,241.54v-35.45h15.14v35.45h-15.14Z"/>
          <path class="cls-1" d="M723.32,241.54v-35.45h12.22l.19,10.41h1.88c.81-2.51,1.97-4.61,3.48-6.31,1.5-1.7,3.42-2.96,5.73-3.79,2.32-.83,5.04-1.24,8.18-1.24,5.83,0,10.26,1.46,13.3,4.37,3.04,2.91,4.56,7.54,4.56,13.9v18.13h-15.23v-16.92c0-3.67-.74-6.35-2.21-8.02s-3.65-2.52-6.53-2.52c-2.38,0-4.34.52-5.88,1.54-1.54,1.03-2.68,2.4-3.43,4.1-.75,1.7-1.13,3.6-1.13,5.71v16.12h-15.14Z"/>
          <path class="cls-1" d="M774.22,211.13c1.13-2.06,1.93-4,2.4-5.81.47-1.81.75-3.69.85-5.64.09-1.95.14-4.11.14-6.48h13.82c0,3.31-.27,6.11-.8,8.39-.53,2.28-1.24,4.19-2.11,5.71-.88,1.52-1.79,2.8-2.73,3.83h-11.56Z"/>
        </g>
        <g>
          <path class="cls-1" d="M259.58,287.13c0,2.54,0,5.08.33,7.65.66,5.08,1.75,8.63,4.86,8.63,2.51,0,4.43-4.84,5.19-7.46l6.61,5.78c-3.77,6.83-7.21,9.25-11.97,9.25-6.39,0-11.7-3.91-13.23-14.49-.55-3.67-.6-8.08-.6-10.54,0-1.17-.11-2.81-.49-4.18l10.06.08c-.44,1.64-.77,4.14-.77,5.27ZM296.85,302.79l-8.69,2.38c-.77-5.82-3.39-15.7-9.73-20.62l8.36-1.95c5.3,4.45,9.62,14.6,10.06,20.19Z"/>
          <path class="cls-1" d="M308.88,287.13c0,2.54,0,5.08.33,7.65.66,5.08,1.75,8.63,4.86,8.63,2.51,0,4.43-4.84,5.19-7.46l6.61,5.78c-3.77,6.83-7.21,9.25-11.97,9.25-6.39,0-11.7-3.91-13.23-14.49-.55-3.67-.6-8.08-.6-10.54,0-1.17-.11-2.81-.49-4.18l10.06.08c-.44,1.64-.77,4.14-.77,5.27ZM346.16,302.79l-8.69,2.38c-.77-5.82-3.39-15.7-9.73-20.62l8.36-1.95c5.3,4.45,9.62,14.6,10.06,20.19Z"/>
          <path class="cls-1" d="M378.86,308.26c1.91,0,2.24-.39,2.51-3.16,1.53.82,4.92,1.64,7,1.95-.87,4.96-3.01,6.21-8.75,6.21h-7.76c-7.87,0-9.62-1.56-9.62-6.17v-4.49h7.38c-.66-.35-1.26-.66-1.86-.94l3.72-2.19h-11.04v-8.63h15.96v5.47c1.42-.66,2.79-1.41,4.04-2.23-1.64-2.69-2.9-5.97-3.72-9.53h-16.89v1.6c0,4.96-1.09,12.1-6.39,16.56-1.15-.98-4.26-2.85-5.79-3.44,4.54-3.83,4.92-9.25,4.92-13.2v-5.97h23.39c-.11-1.13-.22-2.26-.27-3.44h7.43c.05,1.17.11,2.3.27,3.44h3.12c-.87-.31-1.8-.59-2.62-.82l3.88-3.08c2.51.58,5.79,1.64,7.54,2.58l-1.64,1.33h4.48v4.45h-13.94c.44,1.72.98,3.32,1.58,4.76,1.09-1.33,2.02-2.77,2.73-4.29l7.32,1.25c-1.58,3.16-3.83,6.05-6.56,8.55,1.04.94,2.13,1.48,3.17,1.48,1.15,0,1.58-1.29,1.86-4.53,1.58,1.02,4.04,2.03,5.9,2.46-1.04,5.9-3.28,7.15-8.2,7.15-2.95,0-5.52-1.01-7.65-2.73-1.42.9-2.84,1.68-4.37,2.38-.77-.7-2.24-1.88-3.61-2.81v1.25h-1.69c2.35,1.13,4.81,2.58,6.12,3.71l-5.52,3.32c-1.04-1.05-3.06-2.42-5.19-3.63v4.14c0,1.13.38,1.25,2.79,1.25h5.96ZM348.2,309.78c3.12-1.76,5.36-4.45,6.5-7.38l7.11,1.8c-1.31,3.32-3.33,6.6-7,8.79l-6.61-3.2ZM376.45,289.44h-15.8v-3.51h15.8v3.51ZM370,294.36h-3.28v1.6h3.28v-1.6ZM391.92,301.7c3.39,2.42,6.94,5.74,8.31,8.32l-7.27,2.58c-1.09-2.42-4.37-5.97-7.71-8.55l6.67-2.34Z"/>
          <path class="cls-1" d="M415.87,279.09c-.38,1.84-.71,4.18-.82,5.86-.27,4.06-.66,12.42-.66,16.67,0,3.71,3.01,4.88,6.67,4.88,8.42,0,14.1-3.51,18.04-7.85l5.96,5.23c-3.39,3.71-11.42,9.02-24.05,9.02-9.46,0-15.36-3.05-15.36-9.8,0-4.88.49-15.23.49-18.16,0-2.07-.27-4.18-.82-5.94l10.55.08ZM434.46,288.38l-5.85,1.8c-1.75-2.69-2.84-4.26-4.97-6.4l5.68-1.68c1.64,1.76,3.94,4.53,5.14,6.29ZM442.11,285.96l-5.68,1.95c-1.91-2.69-3.12-4.14-5.25-6.21l5.63-1.83c1.69,1.68,4.1,4.37,5.3,6.09Z"/>
          <path class="cls-1" d="M453.07,282.57c5.08-.31,13.28-.78,23.17-1.41,5.41-.31,11.81-.55,15.74-.66l.05,6.01c-2.79.04-7.38.04-10.38.47-5.85.94-10.88,5.47-10.88,10.04,0,5.7,7.49,7.93,16.83,8.32l-3.06,6.52c-12.08-.66-22.41-5.35-22.41-13.59,0-5.31,3.94-9.41,6.83-11.29-4.65.35-14.16,1.13-20.66,2.15l-.82-6.36c2.19-.04,4.54-.12,5.57-.2ZM488.76,294.98l-4.86,1.52c-1.48-2.26-2.4-3.55-4.15-5.35l4.75-1.41c1.37,1.45,3.28,3.79,4.26,5.23ZM495.21,292.95l-4.81,1.64c-1.58-2.23-2.62-3.44-4.43-5.19l4.7-1.52c1.42,1.41,3.44,3.67,4.54,5.08Z"/>
          <path class="cls-1" d="M521.57,293.58h-24.16v-4.76h4.04c-.11-1.13-.44-2.58-.87-3.67h-2.24v-4.61h7.27v-3.91h7.6v3.91h7.82v4.61h-1.91c-.6,1.37-1.2,2.62-1.69,3.67h4.15v4.76ZM542.45,306.46c2.95,1.52,6.07,3.4,7.82,4.61l-6.67,2.81c-1.64-1.41-4.92-3.63-7.54-5.15l4.32-2.27h-10.49l4.86,2.23c-2.46,1.76-6.67,3.94-9.67,5.11-1.31-.9-3.61-2.23-5.41-3.08v1.48h-12.79v1.56h-6.94v-18.63h19.73v15.38c2.79-.98,5.9-2.66,7.98-4.06h-4.92v-17.57h25.2v17.57h-5.47ZM506.81,285.14c.49,1.21.77,2.66.87,3.59l-.49.08h3.72c.27-1.09.49-2.46.6-3.67h-4.7ZM506.87,299.59v1.87h5.68v-1.87h-5.68ZM512.55,307.75v-2.26h-5.68v2.26h5.68ZM546.71,287.68h-22.68v-9.33h22.68v9.33ZM540.26,292.52h-10.28v1.17h10.28v-1.17ZM540.26,297.09h-10.28v1.13h10.28v-1.13ZM540.26,301.62h-10.28v1.17h10.28v-1.17ZM539.06,282.25h-7.71v1.56h7.71v-1.56Z"/>
          <path class="cls-1" d="M574.68,304.24c.11-.98.22-2.42.27-3.87-3.39,1.41-4.86,2.66-4.86,4.22,0,1.64,1.69,2.3,6.78,2.3,4.81,0,10.99-.47,15.74-1.21l-.27,6.05c-3.33.31-10.28.66-15.63.66-8.91,0-15.3-1.64-15.3-6.79s6.45-8.28,12.46-10.54c-.82-.59-1.91-.78-2.95-.78-2.79,0-6.12,1.29-7.98,2.58-1.64,1.21-3.17,2.62-5.03,4.37l-7-3.75c5.14-3.24,8.96-6.4,11.59-9.96-2.24,0-6.18-.08-9.02-.27v-5.43c2.68.31,6.83.47,9.73.47h2.13c.6-1.76.87-3.24.93-4.22l8.64.51c-.22.86-.6,2.07-1.2,3.51,4.86-.2,10.06-.51,14.59-1.09l-.05,5.43c-5.08.47-11.7.82-17.49.98-.66,1.02-1.37,1.95-2.08,2.73,1.09-.23,3.83-.39,5.36-.39,3.17,0,5.79.94,7.21,2.73,2.19-.74,3.93-1.25,5.85-1.87,2.35-.74,4.59-1.48,6.89-2.26l3.23,5.39c-1.91.39-5.3,1.29-7.38,1.87-2.08.55-4.7,1.29-7.54,2.19.05,2.11.16,4.72.22,6.44h-7.82Z"/>
          <path class="cls-1" d="M620.41,302.75l.93,4.8c-7.05,1.68-14.65,3.4-20.5,4.72l-1.69-5.31,1.86-.31v-12.85h5.74v11.75l1.69-.35v-13.75h-7.16v-13.39h18.47v13.39h-4.97v3.51h5.19v4.92h-5.19v4.02l5.63-1.17ZM607.73,286.67h5.14v-3.79h-5.14v3.79ZM651.62,283.19c-2.46,1.33-4.75,2.69-6.78,3.79,1.91,1.76,4.37,3.16,7.32,4.1-1.53,1.01-3.77,3.08-4.81,4.53-3.33-1.48-5.9-3.59-7.87-6.17v1.95c0,2.19-.44,3.44-2.35,4.18-1.86.74-4.26.82-7.32.82-.22-1.25-.88-2.93-1.64-4.26-1.42,1.52-3.17,2.73-5.25,3.71-.93-1.09-2.79-2.81-4.15-3.67,2.84-1.29,4.86-3.59,6.12-6.33h-4.15v-4.72h6.67l1.26-.12,3.66.7v-5.08h7.16v2.58c.55,1.29,1.15,2.58,1.91,3.79,1.48-1.13,3.01-2.38,3.99-3.44l6.23,3.63ZM622.76,296.78h26.29v16.83h-7.71v-1.02h-11.31v1.21h-7.27v-17.02ZM632.32,284.83c-.82,2.69-2.08,5-3.77,6.91,1.26.04,2.57.04,3.06.04.55,0,.71-.12.71-.51v-6.44ZM630.03,301.31v1.41h11.31v-1.41h-11.31ZM641.34,308.06v-1.45h-11.31v1.45h11.31Z"/>
          <path class="cls-1" d="M680.43,282.45c-2.79,2.81-6.29,7.38-8.85,10.62,1.69-.35,3.39-.51,5.14-.51,4.32,0,6.67,1.95,6.94,5.27.11,1.41-.05,4.57.27,6.05.22,1.25,1.48,1.72,2.95,1.72,3.93,0,6.5-3.79,8.14-8.98l7.11,4.14c-2.79,6.91-8.04,11.32-16.67,11.32-6.07,0-9.4-2.54-9.67-5.62-.22-1.99-.22-5.23-.38-6.48-.16-1.17-1.04-1.87-2.68-1.87-3.33,0-5.79,2.42-7.65,5.62-1.31,2.23-2.9,6.4-3.77,8.51l-9.29-2.23c3.99-7.69,14.98-23.9,17.82-27.57.71-1.09,1.91-2.54,3.06-4.45l9.29,2.69c-.6.51-1.15,1.17-1.75,1.76Z"/>
          <path class="cls-1" d="M702.63,282.57c5.08-.31,13.28-.78,23.17-1.41,5.41-.31,11.81-.55,15.74-.66l.05,6.01c-2.79.04-7.38.04-10.38.47-5.85.94-10.88,5.47-10.88,10.04,0,5.7,7.49,7.93,16.83,8.32l-3.06,6.52c-12.08-.66-22.41-5.35-22.41-13.59,0-5.31,3.94-9.41,6.83-11.29-4.65.35-14.16,1.13-20.66,2.15l-.82-6.36c2.19-.04,4.54-.12,5.58-.2ZM738.32,294.98l-4.86,1.52c-1.48-2.26-2.41-3.55-4.15-5.35l4.76-1.41c1.37,1.45,3.28,3.79,4.26,5.23ZM744.77,292.95l-4.81,1.64c-1.58-2.23-2.62-3.44-4.43-5.19l4.7-1.52c1.42,1.41,3.44,3.67,4.54,5.08Z"/>
        </g>
      </g>
    </g>
  </g>
</svg>